<svg width="24" height="24" viewBox="0 0 24 24" fill="none" xmlns="http://www.w3.org/2000/svg">
<path fill-rule="evenodd" clip-rule="evenodd" d="M11.5 5.55439C10.5499 4.79436 8.71839 3.80672 5.98056 3.28544C4.2879 2.96315 3.44157 2.80201 2.72078 3.41964C2 4.03727 2 5.04022 2 7.04612L2 14.255C2 16.0891 2 17.0061 2.4626 17.5787C2.9252 18.1512 3.94365 18.3451 5.98056 18.733C7.79633 19.0787 9.21344 19.6295 10.2392 20.1831L10.2392 20.1831C10.8022 20.4869 11.2082 20.706 11.5 20.8403L11.5 5.55439ZM12.5 5.55439L12.5 20.8403C12.7918 20.706 13.1978 20.4869 13.7608 20.1831L13.7608 20.1831C14.7866 19.6295 16.2037 19.0787 18.0194 18.733C20.0564 18.3451 21.0748 18.1512 21.5374 17.5787C22 17.0061 22 16.0891 22 14.255L22 7.04612C22 5.04022 22 4.03727 21.2792 3.41964C20.5584 2.80201 19.7121 2.96315 18.0194 3.28544C15.2816 3.80672 13.4501 4.79436 12.5 5.55439Z" fill="black"/>
</svg>
