<svg xmlns="http://www.w3.org/2000/svg" viewBox="0 0 380 230" width="100%" height="230">
  <rect width="100%" height="100%" fill="#ffffff" rx="12"/>
  <!-- Triangle 1 -->
  <polygon points="30,175 160,175 160,45" fill="none" stroke="#0f172a" stroke-width="2.6" stroke-linecap="round" stroke-linejoin="round"/>
  <polyline points="144,175 144,159 160,159" fill="none" stroke="#0f172a" stroke-width="1.8"/>
  <path d="M 75,175 A 45,45 0 0,0 65,145" fill="none" stroke="#2563eb" stroke-width="2.2"/>
  <text x="85" y="98" font-family="'Hind Siliguri', sans-serif" font-size="15" font-weight="700" fill="#0f172a">√3</text>
  <text x="95" y="196" font-family="'Hind Siliguri', sans-serif" font-size="15" font-weight="700" fill="#0f172a">√2</text>
  <text x="82" y="165" font-family="'Hind Siliguri', sans-serif" font-size="15" font-weight="700" fill="#2563eb">α</text>
  <text x="95" y="218" font-family="'Hind Siliguri', sans-serif" font-size="13" font-weight="700" fill="#0284c7">১ম চিত্র</text>
  <!-- Triangle 2 -->
  <polygon points="220,175 350,175 350,45" fill="none" stroke="#0f172a" stroke-width="2.6" stroke-linecap="round" stroke-linejoin="round"/>
  <polyline points="334,175 334,159 350,159" fill="none" stroke="#0f172a" stroke-width="1.8"/>
  <path d="M 265,175 A 45,45 0 0,0 255,145" fill="none" stroke="#2563eb" stroke-width="2.2"/>
  <text x="275" y="98" font-family="'Hind Siliguri', sans-serif" font-size="15" font-weight="700" fill="#0f172a">2√3</text>
  <text x="285" y="196" font-family="'Hind Siliguri', sans-serif" font-size="15" font-weight="700" fill="#0f172a">√3 + √2</text>
  <text x="272" y="165" font-family="'Hind Siliguri', sans-serif" font-size="15" font-weight="700" fill="#2563eb">β</text>
  <text x="285" y="218" font-family="'Hind Siliguri', sans-serif" font-size="13" font-weight="700" fill="#0284c7">২য় চিত্র</text>
</svg>